<mxfile host="Electron" agent="Mozilla/5.0 (Windows NT 10.0; Win64; x64) AppleWebKit/537.36 (KHTML, like Gecko) draw.io/26.0.3 Chrome/130.0.6723.137 Electron/33.2.1 Safari/537.36" version="26.0.3">
  <diagram name="Page-1" id="-agZrNoaxW9GGDWGBzda">
    <mxGraphModel dx="2314" dy="1196" grid="1" gridSize="10" guides="1" tooltips="1" connect="1" arrows="1" fold="1" page="1" pageScale="1" pageWidth="1169" pageHeight="1654" math="0" shadow="0">
      <root>
        <mxCell id="0" />
        <mxCell id="1" parent="0" />
        <mxCell id="4ptSMAMMEyXdINmpGjF1-1" value="" style="sketch=0;points=[[0.015,0.015,0],[0.985,0.015,0],[0.985,0.985,0],[0.015,0.985,0],[0.25,0,0],[0.5,0,0],[0.75,0,0],[1,0.25,0],[1,0.5,0],[1,0.75,0],[0.75,1,0],[0.5,1,0],[0.25,1,0],[0,0.75,0],[0,0.5,0],[0,0.25,0]];verticalLabelPosition=bottom;html=1;verticalAlign=top;aspect=fixed;align=center;pointerEvents=1;shape=mxgraph.cisco19.rect;prIcon=l2_switch;fillColor=#FAFAFA;strokeColor=#005073;" parent="1" vertex="1">
          <mxGeometry x="400" y="340" width="50" height="50" as="geometry" />
        </mxCell>
        <mxCell id="4ptSMAMMEyXdINmpGjF1-7" style="edgeStyle=orthogonalEdgeStyle;rounded=0;orthogonalLoop=1;jettySize=auto;html=1;exitX=1;exitY=0.5;exitDx=0;exitDy=0;exitPerimeter=0;" parent="1" source="4ptSMAMMEyXdINmpGjF1-2" target="4ptSMAMMEyXdINmpGjF1-3" edge="1">
          <mxGeometry relative="1" as="geometry" />
        </mxCell>
        <mxCell id="4ptSMAMMEyXdINmpGjF1-2" value="" style="sketch=0;points=[[0.015,0.015,0],[0.985,0.015,0],[0.985,0.985,0],[0.015,0.985,0],[0.25,0,0],[0.5,0,0],[0.75,0,0],[1,0.25,0],[1,0.5,0],[1,0.75,0],[0.75,1,0],[0.5,1,0],[0.25,1,0],[0,0.75,0],[0,0.5,0],[0,0.25,0]];verticalLabelPosition=bottom;html=1;verticalAlign=top;aspect=fixed;align=center;pointerEvents=1;shape=mxgraph.cisco19.rect;prIcon=l2_switch;fillColor=#FAFAFA;strokeColor=#005073;" parent="1" vertex="1">
          <mxGeometry x="700" y="346" width="50" height="50" as="geometry" />
        </mxCell>
        <mxCell id="4ptSMAMMEyXdINmpGjF1-3" value="" style="image;sketch=0;aspect=fixed;html=1;points=[];align=center;fontSize=12;image=img/lib/mscae/VM_Windows_Non_Azure.svg;" parent="1" vertex="1">
          <mxGeometry x="990" y="350" width="50" height="46" as="geometry" />
        </mxCell>
        <mxCell id="4ptSMAMMEyXdINmpGjF1-5" style="edgeStyle=orthogonalEdgeStyle;rounded=0;orthogonalLoop=1;jettySize=auto;html=1;" parent="1" source="4ptSMAMMEyXdINmpGjF1-4" target="4ptSMAMMEyXdINmpGjF1-1" edge="1">
          <mxGeometry relative="1" as="geometry" />
        </mxCell>
        <mxCell id="4ptSMAMMEyXdINmpGjF1-4" value="" style="image;sketch=0;aspect=fixed;html=1;points=[];align=center;fontSize=12;image=img/lib/mscae/VM_Linux.svg;" parent="1" vertex="1">
          <mxGeometry x="140" y="340" width="50" height="46" as="geometry" />
        </mxCell>
        <mxCell id="4ptSMAMMEyXdINmpGjF1-6" style="edgeStyle=orthogonalEdgeStyle;rounded=0;orthogonalLoop=1;jettySize=auto;html=1;exitX=1;exitY=0.5;exitDx=0;exitDy=0;exitPerimeter=0;entryX=0;entryY=0.5;entryDx=0;entryDy=0;entryPerimeter=0;" parent="1" source="4ptSMAMMEyXdINmpGjF1-1" target="4ptSMAMMEyXdINmpGjF1-2" edge="1">
          <mxGeometry relative="1" as="geometry" />
        </mxCell>
        <mxCell id="4ptSMAMMEyXdINmpGjF1-8" value="VLAN 2" style="text;strokeColor=none;align=center;fillColor=none;html=1;verticalAlign=middle;whiteSpace=wrap;rounded=0;" parent="1" vertex="1">
          <mxGeometry x="860" y="280" width="60" height="30" as="geometry" />
        </mxCell>
        <mxCell id="4ptSMAMMEyXdINmpGjF1-9" value="VLAN 1" style="text;strokeColor=none;align=center;fillColor=none;html=1;verticalAlign=middle;whiteSpace=wrap;rounded=0;" parent="1" vertex="1">
          <mxGeometry x="260" y="280" width="60" height="30" as="geometry" />
        </mxCell>
        <mxCell id="4ptSMAMMEyXdINmpGjF1-10" value="Kali" style="text;strokeColor=none;align=center;fillColor=none;html=1;verticalAlign=middle;whiteSpace=wrap;rounded=0;" parent="1" vertex="1">
          <mxGeometry x="135" y="410" width="60" height="30" as="geometry" />
        </mxCell>
        <mxCell id="4ptSMAMMEyXdINmpGjF1-11" value="Windows 10" style="text;strokeColor=none;align=center;fillColor=none;html=1;verticalAlign=middle;whiteSpace=wrap;rounded=0;" parent="1" vertex="1">
          <mxGeometry x="990" y="420" width="70" height="30" as="geometry" />
        </mxCell>
        <mxCell id="4ptSMAMMEyXdINmpGjF1-12" value="SW2" style="text;strokeColor=none;align=center;fillColor=none;html=1;verticalAlign=middle;whiteSpace=wrap;rounded=0;" parent="1" vertex="1">
          <mxGeometry x="400" y="410" width="60" height="30" as="geometry" />
        </mxCell>
        <mxCell id="4ptSMAMMEyXdINmpGjF1-13" value="SW1" style="text;strokeColor=none;align=center;fillColor=none;html=1;verticalAlign=middle;whiteSpace=wrap;rounded=0;" parent="1" vertex="1">
          <mxGeometry x="740" y="415" width="60" height="30" as="geometry" />
        </mxCell>
        <mxCell id="4ptSMAMMEyXdINmpGjF1-14" value="TRUNK" style="text;strokeColor=none;align=center;fillColor=none;html=1;verticalAlign=middle;whiteSpace=wrap;rounded=0;" parent="1" vertex="1">
          <mxGeometry x="560" y="300" width="60" height="30" as="geometry" />
        </mxCell>
        <mxCell id="4ptSMAMMEyXdINmpGjF1-15" value="10.1.2.3/24&lt;br&gt;GW:10.1.2.254" style="text;strokeColor=none;align=center;fillColor=none;html=1;verticalAlign=middle;whiteSpace=wrap;rounded=0;" parent="1" vertex="1">
          <mxGeometry x="967.5" y="460" width="115" height="30" as="geometry" />
        </mxCell>
        <mxCell id="ui_uqAg7BRfiOqJdB7rj-2" value="Pruebas VLAN Hopping Double Tag:&lt;br&gt;&lt;br&gt;&lt;div&gt;1.- VLAN diferente VLAN 1 y VLAN 2&amp;nbsp;&lt;/div&gt;&lt;div&gt;2.- Agregamos dos etiquetas 802.1Q VLAN 1 Y VLAN 2&lt;/div&gt;&lt;div&gt;3.- Agregamos una etiqueta&amp;nbsp; mas de&amp;nbsp; VLAN 2 tenemos en total 3:&amp;nbsp; una etiqueta&amp;nbsp; VLAN 1 dos etiquetas de VLAN 2&lt;/div&gt;" style="text;strokeColor=none;align=center;fillColor=none;html=1;verticalAlign=middle;whiteSpace=wrap;rounded=0;" parent="1" vertex="1">
          <mxGeometry x="395" y="70" width="380" height="160" as="geometry" />
        </mxCell>
        <mxCell id="hrbW0_pfA8258nidaYJx-3" style="edgeStyle=orthogonalEdgeStyle;rounded=0;orthogonalLoop=1;jettySize=auto;html=1;" edge="1" parent="1">
          <mxGeometry relative="1" as="geometry">
            <mxPoint x="725" y="396" as="targetPoint" />
            <mxPoint x="735" y="566" as="sourcePoint" />
            <Array as="points">
              <mxPoint x="735" y="482" />
              <mxPoint x="726" y="482" />
            </Array>
          </mxGeometry>
        </mxCell>
        <mxCell id="ui_uqAg7BRfiOqJdB7rj-3" value="" style="image;aspect=fixed;html=1;points=[];align=center;fontSize=12;image=img/lib/azure2/networking/Virtual_Router.svg;" parent="1" vertex="1">
          <mxGeometry x="691" y="570" width="78" height="78" as="geometry" />
        </mxCell>
        <mxCell id="ui_uqAg7BRfiOqJdB7rj-4" value="VLAN 1: 10.1.1.254&lt;div&gt;VLAN 2: 10.1.2.254&lt;/div&gt;&lt;div&gt;VLAN 3: 10.1.3.254&lt;/div&gt;" style="text;strokeColor=none;align=center;fillColor=none;html=1;verticalAlign=middle;whiteSpace=wrap;rounded=0;" parent="1" vertex="1">
          <mxGeometry x="625" y="680" width="200" height="30" as="geometry" />
        </mxCell>
        <mxCell id="hrbW0_pfA8258nidaYJx-4" style="edgeStyle=orthogonalEdgeStyle;rounded=0;orthogonalLoop=1;jettySize=auto;html=1;" edge="1" parent="1" source="ui_uqAg7BRfiOqJdB7rj-5">
          <mxGeometry relative="1" as="geometry">
            <mxPoint x="585" y="370" as="targetPoint" />
          </mxGeometry>
        </mxCell>
        <mxCell id="ui_uqAg7BRfiOqJdB7rj-5" value="Wireshark" style="html=1;outlineConnect=0;whiteSpace=wrap;fillColor=#FFE0E0;shape=mxgraph.archimate3.application;appType=workPackage;archiType=rounded;" parent="1" vertex="1">
          <mxGeometry x="510" y="430" width="150" height="80" as="geometry" />
        </mxCell>
        <mxCell id="hrbW0_pfA8258nidaYJx-5" style="edgeStyle=orthogonalEdgeStyle;rounded=0;orthogonalLoop=1;jettySize=auto;html=1;" edge="1" parent="1" source="ui_uqAg7BRfiOqJdB7rj-6">
          <mxGeometry relative="1" as="geometry">
            <mxPoint x="290" y="360" as="targetPoint" />
          </mxGeometry>
        </mxCell>
        <mxCell id="ui_uqAg7BRfiOqJdB7rj-6" value="Wireshark" style="html=1;outlineConnect=0;whiteSpace=wrap;fillColor=#FFE0E0;shape=mxgraph.archimate3.application;appType=workPackage;archiType=rounded;" parent="1" vertex="1">
          <mxGeometry x="210" y="445" width="150" height="75" as="geometry" />
        </mxCell>
        <mxCell id="hrbW0_pfA8258nidaYJx-6" style="edgeStyle=orthogonalEdgeStyle;rounded=0;orthogonalLoop=1;jettySize=auto;html=1;" edge="1" parent="1" source="ui_uqAg7BRfiOqJdB7rj-7">
          <mxGeometry relative="1" as="geometry">
            <mxPoint x="885" y="370" as="targetPoint" />
          </mxGeometry>
        </mxCell>
        <mxCell id="ui_uqAg7BRfiOqJdB7rj-7" value="Wireshark" style="html=1;outlineConnect=0;whiteSpace=wrap;fillColor=#FFE0E0;shape=mxgraph.archimate3.application;appType=workPackage;archiType=rounded;" parent="1" vertex="1">
          <mxGeometry x="810" y="480" width="150" height="75" as="geometry" />
        </mxCell>
        <mxCell id="hrbW0_pfA8258nidaYJx-1" value="Vlan Native 1" style="text;strokeColor=none;align=center;fillColor=none;html=1;verticalAlign=middle;whiteSpace=wrap;rounded=0;" vertex="1" parent="1">
          <mxGeometry x="380" y="290" width="80" height="30" as="geometry" />
        </mxCell>
        <mxCell id="hrbW0_pfA8258nidaYJx-2" value="Vlan Native 1" style="text;strokeColor=none;align=center;fillColor=none;html=1;verticalAlign=middle;whiteSpace=wrap;rounded=0;" vertex="1" parent="1">
          <mxGeometry x="690" y="290" width="80" height="30" as="geometry" />
        </mxCell>
      </root>
    </mxGraphModel>
  </diagram>
</mxfile>
